<svg width="156" height="58" viewBox="0 0 156 58" fill="none" xmlns="http://www.w3.org/2000/svg">
<g clip-path="url(#clip0_2607_1548)">
<path d="M80.4523 54.5356V32.5884L74.6918 34.8987L74.8248 34.9644L76.9956 36.0548V54.5356L74.6918 56.8459H82.7542L82.4843 56.5733L80.4523 54.5356Z" fill="black"/>
<path d="M90.99 54.5356V40.6736L85.2315 42.9839L87.5353 44.14V54.5356L85.2315 56.8459H93.2939L93.0375 56.5888L90.99 54.5356Z" fill="black"/>
<path d="M104.549 47.6046L110.307 41.8297H103.396L105.565 44.0028L105.7 44.14L101.094 48.7588V32.5884L100.734 32.7334L95.3336 34.8987L97.6374 36.0548V54.5356L96.3804 55.7942L95.3336 56.8459H103.396L101.094 54.5356V51.0691L102.245 49.9149L104.165 52.32L106.853 55.6898L107.888 56.3838L110.307 58.0001L111.458 56.8459L110.917 56.1209L104.549 47.6046Z" fill="black"/>
<path d="M47.7978 41.8295L45.494 41.06L44.3431 40.6753H42.0393L41.7327 40.83L39.7374 41.8314V32.5901L34.3393 34.7554L33.9788 34.9004L34.0463 34.9352L36.2826 36.0566V53.3831L33.9788 54.5373L37.2986 56.7568L37.4336 56.8476L38.5845 54.5373L39.6005 55.5562L39.7355 55.6915L42.0393 56.8457H44.3431L44.4106 56.8225L47.7978 55.6896L48.8138 53.6518L50.1017 51.0708V46.4502L47.7978 41.8295ZM45.494 54.5354L44.3084 55.1308L43.1902 55.6915L42.3477 55.27L40.8864 54.5373L39.7355 52.227V45.296L40.8131 43.1345L40.8883 42.9856L41.0522 42.9025L43.1921 41.8295L44.3103 42.3902L45.494 42.9837L46.1225 46.1331L46.6469 48.7586L46.1726 51.1385L45.496 54.5334L45.494 54.5354Z" fill="black"/>
<path d="M124.34 47.6044L125.491 45.294L123.188 41.8295L120.884 41.06L119.733 40.6753H117.429L113.974 41.8295L111.67 46.4502V51.0708L113.974 55.6896L117.429 56.8457H120.884L120.951 56.8109L123.188 55.6896L125.356 53.5146L125.491 53.3792L124.34 52.225L123.257 53.3116L122.037 54.5334L120.851 55.1289L119.733 55.6896L117.971 55.0999L116.276 54.5334L115.125 49.9128L116.77 49.501L124.338 47.6044H124.34ZM115.125 48.7586L116.205 43.3452L116.276 42.9837L118.58 41.8295L119.731 42.4076L120.882 42.9856V46.4502L120.521 46.5952L115.123 48.7605L115.125 48.7586Z" fill="black"/>
<path d="M23.0362 41.8295L21.8852 41.4448L19.5814 40.6753H17.2776L13.8229 41.8295L11.519 46.4502V51.0708L11.9721 51.9814L13.8209 55.6915L17.2757 56.8457H19.5795L19.7145 56.8012L23.0343 55.6915L23.9693 53.8142L25.3381 51.0708V46.4502L23.0343 41.8295H23.0362ZM20.7324 54.5354L19.5467 55.1308L18.4286 55.6915L17.5707 55.2604L16.1247 54.5354L14.9738 48.7605L15.9898 43.6642L16.1247 42.9856L16.4313 42.831L18.4286 41.8295L19.5467 42.3902L20.7304 42.9837L21.3589 46.1331L21.8833 48.7586L21.4091 51.1385L20.7324 54.5334V54.5354Z" fill="black"/>
<path d="M9.21333 52.2252L7.76935 53.6732L6.91144 54.5355L5.75857 53.3794V44.14L9.21526 42.9838V41.8296H5.75857V37.209H4.60763L3.45476 39.5193L2.30381 40.6735L0 41.8296V42.9838L2.30381 44.14V53.3794L4.60763 56.8458H5.75857L8.06238 55.6897L10.1098 53.6365L10.3662 53.3794L9.21333 52.2252Z" fill="black"/>
<path d="M144.496 53.3794L143.806 53.7255L142.194 54.5336H141.044V32.5884L135.645 34.7537L135.285 34.8987L135.331 34.9219L137.589 36.0548V41.8297L135.414 40.7393L135.287 40.6755H132.983L129.528 41.8297L127.224 46.4504V51.071L128.24 53.1088L129.528 55.6917L132.983 56.8459H135.287L135.333 56.8227L137.591 55.6917L138.327 54.9532L138.742 54.5375L139.758 56.5752L139.893 56.8478H142.196L144.5 54.5375V53.3833L144.496 53.3794ZM136.434 54.5356L135.474 55.017L134.13 55.6898L133.288 55.2683L131.826 54.5356L131.013 50.4582L130.673 48.7588L131.824 42.9839L131.988 42.9008L134.128 41.8278L136.303 42.9182L136.43 42.982L136.5 43.1212L137.581 45.2904V52.2214L136.762 53.8666L136.43 54.5317L136.434 54.5356Z" fill="black"/>
<path d="M65.4785 47.6046L65.9354 46.6901L66.6313 45.2942L64.3757 41.9012L64.3275 41.8297L62.6001 41.2516L60.8728 40.6736H58.5689L55.1142 41.8278L52.8104 46.4484V51.0691L53.8264 53.1068L55.1142 55.6898L58.5689 56.844H62.0237L62.0912 56.8092L64.3275 55.6878L66.6313 53.3775L66.1069 52.8516L65.4785 52.2214L64.395 53.3079L63.1746 54.5298L61.9716 55.133L60.8708 55.684L59.076 55.0847L57.4161 54.5298L56.6179 51.3321L56.2632 49.911L65.4765 47.6007L65.4785 47.6046ZM60.8708 42.4078L62.0218 42.9858V46.4504L56.2632 48.7607L57.4141 42.9858L59.718 41.8316L60.8689 42.4097L60.8708 42.4078Z" fill="black"/>
<path d="M87.5353 33.7444L87.3811 34.0518L86.3824 36.0547V37.2089L88.4163 38.2278L88.6862 38.3651H89.8391L90.99 36.0547V34.8986L88.6862 33.7444H87.5353Z" fill="black"/>
<path d="M132.31 24.2556H135.765L138.069 23.1014L140.373 20.7911L139.222 19.6369L136.918 21.9472L134.614 23.1014L131.159 21.9472L130.008 17.3266L139.224 15.0162L140.375 12.7059L138.071 9.24136L134.616 8.08716H132.312L128.857 9.24136L126.554 13.862V18.4827L128.857 23.1034L132.312 24.2576L132.31 24.2556ZM131.159 10.3956L133.463 9.24136L135.767 10.3956V13.8601L130.008 16.1704L131.159 10.3956Z" fill="black"/>
<path d="M100.751 24.2556H104.206L106.509 23.1014L108.813 20.7911L107.662 19.6369L105.359 21.9472L103.055 23.1014L99.6 21.9472L98.449 17.3266L107.664 15.0162L108.815 12.7059L106.511 9.24136L103.057 8.08716H100.753L97.2981 9.24136L94.9943 13.862V18.4827L97.2981 23.1034L100.753 24.2576L100.751 24.2556ZM99.6 10.3956L101.904 9.24136L104.208 10.3956V13.8601L98.449 16.1704L99.6 10.3956Z" fill="black"/>
<path d="M17.3625 24.2557H24.2739L21.9701 21.9454V4.62076L34.6401 25.4118L36.942 23.1015V3.46463L39.2458 1.1543H32.3363L34.6401 3.46463V18.4808L24.2739 1.1543H17.3625L19.6663 3.46463V21.9454L17.3625 24.2557Z" fill="black"/>
<path d="M114.285 21.9453L111.981 24.2556H120.043L117.739 21.9453V13.8601L120.043 11.5497H121.196V15.0162H122.347L124.651 11.5497V9.23941L122.347 8.08521L120.043 9.23941L116.588 13.8601V12.7059L117.739 8.08521L110.83 10.3955L114.285 11.5497V21.9453Z" fill="black"/>
<path d="M54.7961 13.8601L52.4922 9.23941L49.0375 8.08521H46.7337L43.2789 9.23941L40.9751 13.8601V18.4807L43.2789 23.1014L46.7337 24.2556H49.0375L52.4922 23.1014L54.7961 18.4807V13.8601ZM50.1884 21.9453L47.8846 23.0995L45.5808 21.9453L44.4299 16.1704L45.5808 10.3955L47.8846 9.24134L50.1884 10.3955L51.3394 16.1704L50.1884 21.9453Z" fill="black"/>
<path d="M85.2026 24.2556H93.2649L90.9611 21.9453V11.5497L89.8102 9.2394L85.2026 8.0852L82.8987 9.2394L81.7478 11.5497V0L75.9873 2.31033L78.2911 3.46453V21.9453L75.9873 24.2556H84.0497L81.7478 21.9453V13.8601L84.0497 10.3955H86.3535L87.5064 11.5497V21.9453L85.2026 24.2556Z" fill="black"/>
<path d="M64.0672 21.9452L62.9163 20.791V11.5497L66.371 10.3955V9.23934H62.9163V4.62061H61.7634L60.6125 6.93094L59.4596 8.08514L57.1577 9.23934V10.3955L59.4596 11.5497V20.791L61.7634 24.2555H62.9163L65.2201 23.1013L67.522 20.791L66.371 19.6349L64.0672 21.9452Z" fill="black"/>
<path d="M155.88 34.1678C155.526 33.0387 154.413 32.4587 153.287 32.8299C152.443 33.1122 151.909 33.6477 151.57 34.2567C151.51 34.2123 151.466 34.1678 151.406 34.1388C151.896 33.6342 152.25 32.9498 152.25 32.0431C152.25 30.8695 151.377 29.9783 150.191 29.9783C149.006 29.9783 148.117 30.8695 148.117 32.0431C148.117 32.9498 148.472 33.6033 148.917 34.1233C148.873 34.1678 148.828 34.1968 148.769 34.2413C148.443 33.6168 147.909 33.0832 147.064 32.8009C145.938 32.4452 144.828 33.0233 144.456 34.1388C144.086 35.2679 144.649 36.3815 145.759 36.7546C146.632 37.0214 147.359 36.9035 147.982 36.6212C147.997 36.6811 148.011 36.7391 148.042 36.7991C147.359 36.9325 146.694 37.2592 146.16 38.0016C145.449 38.9528 145.67 40.1998 146.619 40.8842C147.567 41.5821 148.811 41.3888 149.509 40.4395C150.027 39.7261 150.145 38.9837 150.072 38.2993H150.249C150.16 38.9837 150.265 39.7397 150.812 40.4531C151.508 41.4178 152.738 41.5976 153.687 40.8977C154.635 40.2133 154.841 38.9663 154.161 38.0151C153.642 37.2863 152.96 36.946 152.279 36.8126C152.308 36.7527 152.324 36.6927 152.339 36.6347C152.962 36.9325 153.717 37.0659 154.575 36.7836C155.701 36.4259 156.264 35.2969 155.879 34.1678H155.88ZM150.176 37.4815C149.376 37.4815 148.709 36.8126 148.709 36.0103C148.709 35.2079 149.391 34.5545 150.176 34.5545C150.961 34.5545 151.628 35.2369 151.628 36.0103C151.628 36.7836 150.945 37.4815 150.176 37.4815Z" fill="black"/>
</g>
<defs>
<clipPath id="clip0_2607_1548">
<rect width="156" height="58" fill="white"/>
</clipPath>
</defs>
</svg>
